<?xml version="1.0" encoding="UTF-8" standalone="no"?>
<svg
   xmlns:dc="http://purl.org/dc/elements/1.1/"
   xmlns:cc="http://creativecommons.org/ns#"
   xmlns:rdf="http://www.w3.org/1999/02/22-rdf-syntax-ns#"
   xmlns:svg="http://www.w3.org/2000/svg"
   xmlns="http://www.w3.org/2000/svg"
   xmlns:xlink="http://www.w3.org/1999/xlink"
   id="svg8"
   version="1.1"
   viewBox="0 0 171.35809 154.52042"
   height="154.52042mm"
   width="171.35809mm">
  <defs
     id="defs2">
    <linearGradient
       id="linearGradient7171">
      <stop
         style="stop-color:#78be95;stop-opacity:1"
         offset="0"
         id="stop7167" />
      <stop
         style="stop-color:#e6e6e6;stop-opacity:1"
         offset="1"
         id="stop7169" />
    </linearGradient>
    <linearGradient
       id="linearGradient6273">
      <stop
         id="stop6269"
         offset="0"
         style="stop-color:#78be95;stop-opacity:1" />
      <stop
         id="stop6271"
         offset="1"
         style="stop-color:#e6e6e6;stop-opacity:1" />
    </linearGradient>
    <clipPath
       id="clipPath1606"
       clipPathUnits="userSpaceOnUse">
      <g
         style="display:none"
         transform="translate(-0.70215802,2.4575531)"
         id="g1612">
        <path
           id="path1608"
           d="m 26.40791,86.07676 c 2.599309,-1.089346 7.285305,5.170299 15.096239,11.194996 3.613626,2.818394 7.63434,5.408894 12.624127,8.178964 0.300117,0.16661 0.600204,0.33192 0.899996,0.49592 7.738147,4.25795 15.506375,7.56383 21.053281,10.7126 5.579914,3.16751 8.787359,5.97916 8.182726,7.86974 -0.581257,1.81747 -4.819449,2.42212 -11.264283,1.70469 -6.258884,-0.69672 -15.536774,-2.79493 -24.748819,-7.57659 -0.362721,-0.18925 -0.72543,-0.38331 -1.087905,-0.58227 C 41.214771,114.80976 36.29379,110.75502 32.558492,106.31842 23.901926,95.971782 24.259384,86.977188 26.40791,86.07676 Z"
           style="display:block;fill:#000000;stroke:none;stroke-width:0.360397px;stroke-linecap:butt;stroke-linejoin:miter;stroke-opacity:1" />
        <ellipse
           d="M 184.96606,60.015182 A 50.950943,45.684757 0 0 1 134.01512,105.69994 50.950943,45.684757 0 0 1 83.064178,60.015182 50.950943,45.684757 0 0 1 134.01512,14.330425 50.950943,45.684757 0 0 1 184.96606,60.015182 Z"
           clip-path="none"
           ry="45.684757"
           rx="50.950943"
           cy="60.015182"
           cx="134.01512"
           id="ellipse1610"
           style="fill:#aa0000;stroke-width:0.565211" />
      </g>
      <path
         d="M 41.612553,50.043377 H 144.20997 V 152.6408 H 41.612553 Z M 26.407915,86.076758 C 36.966098,111.26982 63.849103,117.99989 84.264279,124.52897 M 184.96606,60.015182 A 50.950943,45.684757 0 0 0 134.01512,14.330425 50.950943,45.684757 0 0 0 83.064178,60.015182 50.950943,45.684757 0 0 0 134.01512,105.69994 50.950943,45.684757 0 0 0 184.96606,60.015182 Z"
         class="powerclip"
         id="lpe_path-effect1614" />
    </clipPath>
    <linearGradient
       id="linearGradient1565">
      <stop
         style="stop-color:#008080;stop-opacity:1;"
         offset="0"
         id="stop1561" />
      <stop
         style="stop-color:#f9f9f9;stop-opacity:1"
         offset="1"
         id="stop1563" />
    </linearGradient>
    <linearGradient
       xlink:href="#linearGradient1565"
       id="linearGradient1557"
       x1="120.40431"
       y1="176.20764"
       x2="127.85429"
       y2="176.57629"
       gradientUnits="userSpaceOnUse" />
    <linearGradient
       gradientUnits="userSpaceOnUse"
       y2="172.40068"
       x2="123.42954"
       y1="173.70384"
       x1="98.894753"
       id="linearGradient6275"
       xlink:href="#linearGradient6273" />
    <linearGradient
       y2="172.40068"
       x2="123.42954"
       y1="173.70384"
       x1="98.894753"
       gradientUnits="userSpaceOnUse"
       id="linearGradient7144"
       xlink:href="#linearGradient7171" />
    <mask
       id="mask7152"
       maskUnits="userSpaceOnUse">
      <path
         d="m 144.583,213.50302 a 11.093577,11.181273 0 0 1 -11.0794,11.18127 11.093577,11.181273 0 0 1 -11.10772,-11.15269 11.093577,11.181273 0 0 1 11.05101,-11.20977 11.093577,11.181273 0 0 1 11.13597,11.12403 l -11.09343,0.0572 z"
         id="path7154"
         style="fill:#78be95;fill-opacity:1;stroke-width:0.29778132" />
    </mask>
  </defs>
  <metadata
     id="metadata5">
    <rdf:RDF>
      <cc:Work
         rdf:about="">
        <dc:format>image/svg+xml</dc:format>
        <dc:type
           rdf:resource="http://purl.org/dc/dcmitype/StillImage" />
        <dc:title></dc:title>
      </cc:Work>
    </rdf:RDF>
  </metadata>
  <g
     transform="translate(-20.959599,-13.943905)"
     style="display:inline"
     id="layer1">
    <path
       d="M 139.20997,101.34209 A 46.29871,46.29871 0 0 1 92.911263,147.6408 46.29871,46.29871 0 0 1 46.612553,101.34209 46.29871,46.29871 0 0 1 92.911263,55.043377 46.29871,46.29871 0 0 1 139.20997,101.34209 Z"
       transform="translate(0.70215802,-2.4575531)"
       clip-path="url(#clipPath1606)"
       id="path10"
       style="fill:#294866;fill-opacity:1;fill-rule:evenodd;stroke-width:0.498188" />
    <path
       id="path1817"
       d="m 666.08197,275.62012 c 0,0 4.68742,8.43736 4.68742,8.43736"
       style="fill:#000000;stroke:none;stroke-width:1px;stroke-linecap:butt;stroke-linejoin:miter;stroke-opacity:1" />
    <g
       transform="translate(15.347543,-104.40239)"
       id="layer1-3">
      <g
         id="g6256">
        <g
           transform="matrix(-0.74455722,0.66755864,0.66755864,0.74455722,94.257112,4.2223217)"
           id="g6267">
          <g
             id="g1242"
             transform="matrix(1.5043169,0,0,1.559449,-34.681898,-96.840056)">
            <path
               style="fill:#78be95;fill-opacity:1;fill-rule:evenodd;stroke-width:0.33576801"
               id="path1186"
               d="m 76.152756,176.34953 a 7.1130219,4.4175968 0 0 1 -2.471946,3.3477 7.1130219,4.4175968 0 0 1 -5.697716,1.02089 l 1.05664,-4.36859 z" />
            <g
               style="fill:#78be95;fill-opacity:1"
               id="g1235">
              <g
                 style="fill:#78be95;fill-opacity:1"
                 id="g1230"
                 transform="translate(-0.52916667,0.52916667)">
                <path
                   style="fill:#78be95;fill-opacity:1;fill-rule:evenodd;stroke-width:0.44121501"
                   id="path1186-5"
                   d="m -184.16494,-7.6018699 a 9.0005341,6.0282784 0 0 1 -9.54344,3.4855728 l 1.33703,-5.9613939 z"
                   transform="matrix(-0.43931754,-0.89833184,0.89797605,-0.44004432,0,0)" />
                <path
                   style="fill:#78be95;fill-opacity:1;fill-rule:evenodd;stroke-width:0.454734"
                   id="path1186-5-5"
                   transform="matrix(0.83060371,0.55686397,-0.51124325,0.85943606,0,0)"
                   d="m 158.52866,101.67021 a 9.159749,6.2920508 0 0 1 -9.71226,3.63809 l 1.36068,-6.22224 z" />
              </g>
            </g>
          </g>
          <g
             id="g1317"
             style="fill:url(#linearGradient1557);fill-opacity:1"
             transform="matrix(1,0,0,1.3089358,-1.0583333,-54.105976)">
            <rect
               transform="matrix(0.99866886,0.05158008,-0.08948537,0.99598814,0,0)"
               style="fill:url(#linearGradient6275);fill-opacity:1;fill-rule:evenodd;stroke-width:0.10800812"
               id="rect1182"
               width="32.670128"
               height="3.6765668"
               x="97.070358"
               y="170.84056" />
          </g>
          <ellipse
             style="opacity:1;fill:#e6e6e6;fill-opacity:1;fill-rule:evenodd;stroke-width:0.15000001;stroke-miterlimit:4;stroke-dasharray:none"
             id="path1409"
             cx="-113.36004"
             cy="179.83615"
             rx="6.6149211"
             ry="2.3956406"
             transform="scale(-1,1)" />
        </g>
      </g>
    </g>
    <path
       id="path418"
       d="m 131.82995,98.209683 c -1.01916,-0.748937 -1.33244,-2.411733 -0.97292,-4.619318 0.34967,-2.147126 1.42326,-5.211847 3.72288,-8.416203 0.20461,-0.693089 1.41193,-1.833328 4.07603,-3.102715 2.9208,-0.557832 5.28179,-0.16119 6.81491,1.155192 1.32779,1.053667 2.08104,1.842788 2.34128,2.173921 0.50756,0.517134 0.97192,0.999392 1.38105,1.379179 0.0594,0.05513 0.11772,0.108216 0.17511,0.159228 1.53613,1.496273 3.83853,2.874152 5.82882,4.102512 1.85547,1.213847 3.98586,2.226799 5.47317,3.364202 1.50874,1.153794 2.31793,2.323403 2.15862,3.482278 -0.15398,1.120197 -1.22545,2.110097 -2.99044,2.804621 -1.71362,0.67431 -4.43482,1.18763 -7.89445,0.722 -3.33838,-0.42466 -7.3648,-1.851562 -11.04744,-5.029367 -0.12807,-0.115312 -0.25366,-0.230954 -0.37683,-0.34684 -0.85875,-0.808005 -1.57428,-1.604129 -2.17153,-2.348895 -0.63776,-0.694118 -0.66836,-0.918184 -0.38463,-0.666286 0.81687,0.767229 2.24752,0.883179 4.33476,0.58847 1.23851,-0.810738 1.48365,-0.840486 0.70879,-0.516402 -2.49031,1.805557 -4.24455,3.361254 -6.47216,4.546414 -2.00854,1.068602 -3.65622,1.33873 -4.70502,0.568009 z"
       style="display:inline;fill:#294866;fill-opacity:1;stroke:none;stroke-width:0.3643px;stroke-linecap:butt;stroke-linejoin:miter;stroke-opacity:1" />
  </g>
</svg>
