<?xml version="1.0" standalone="no"?>
<!DOCTYPE svg PUBLIC "-//W3C//DTD SVG 20010904//EN"
 "http://www.w3.org/TR/2001/REC-SVG-20010904/DTD/svg10.dtd">
<svg version="1.0" xmlns="http://www.w3.org/2000/svg"
 width="648.000000pt" height="648.000000pt" viewBox="0 0 648.000000 648.000000"
 preserveAspectRatio="xMidYMid meet">
<metadata>
Created by potrace 1.11, written by Peter Selinger 2001-2013
</metadata>
<g transform="translate(0.000000,648.000000) scale(0.100000,-0.100000)"
fill="#000000" stroke="none">
<path d="M2290 4639 c-36 -11 -72 -22 -80 -23 -72 -17 -331 -137 -371 -172 -8
-8 -19 -14 -23 -14 -7 0 -135 -87 -146 -100 -3 -3 -21 -18 -40 -34 -308 -250
-547 -662 -605 -1041 -3 -16 -7 -41 -10 -55 -3 -14 -8 -60 -11 -102 -5 -62 -3
-81 9 -93 9 -8 18 -15 21 -15 5 0 310 -199 341 -223 26 -19 508 -337 512 -337
2 0 9 -5 16 -11 7 -6 80 -55 162 -110 174 -114 180 -118 210 -141 13 -10 26
-18 30 -18 3 0 23 -12 43 -27 52 -38 60 -45 42 -39 -64 21 -374 119 -383 121
-7 1 -19 4 -27 7 -98 37 -160 57 -160 52 0 -3 -12 1 -27 9 -16 8 -80 34 -143
57 -63 24 -135 52 -160 63 -25 10 -61 26 -80 35 -62 26 -294 143 -310 155 -28
22 -62 38 -68 33 -6 -7 45 -205 66 -256 8 -19 18 -44 22 -55 18 -54 115 -239
162 -309 29 -44 58 -86 63 -94 29 -44 126 -152 201 -224 152 -145 339 -265
550 -352 76 -31 249 -83 306 -91 23 -4 45 -8 48 -10 10 -6 144 -19 288 -28 17
-1 32 0 32 3 0 3 30 5 68 6 92 1 204 15 287 35 22 6 47 12 55 13 8 2 22 6 30
9 8 3 29 8 45 12 112 25 388 161 520 257 99 72 276 240 333 316 15 20 29 39
32 42 17 16 60 80 60 88 0 6 4 12 8 14 11 4 82 123 82 137 0 6 5 11 10 11 6 0
10 5 10 11 0 5 13 37 29 70 17 32 27 59 24 59 -3 0 -1 6 5 13 6 6 10 14 10 17
1 3 5 16 10 30 5 14 10 28 11 32 1 4 8 23 17 43 8 19 14 36 13 37 0 2 2 10 5
18 4 13 36 156 41 185 1 6 5 38 9 72 l7 61 -163 0 c-186 -1 -283 7 -418 34
-30 6 -62 13 -70 14 -85 16 -228 61 -340 107 -495 202 -871 585 -1038 1058
-16 46 -30 87 -31 92 0 4 -1 8 -2 10 -2 8 -9 36 -14 62 -3 17 -10 49 -15 71
-16 69 -24 183 -23 307 1 83 -2 117 -10 116 -7 0 -41 -9 -77 -20z"/>
<path d="M5416 3828 c-27 -41 -54 -112 -64 -165 -13 -75 -5 -254 13 -283 3 -4
-37 -50 -88 -103 l-94 -95 -29 17 c-16 9 -30 19 -32 24 -2 4 -8 7 -13 7 -29 0
-222 142 -307 225 -54 52 -103 95 -109 95 -7 0 -13 4 -13 9 0 8 -10 12 -70 28
-23 6 -130 5 -162 -2 -15 -4 -28 -11 -28 -16 0 -5 -5 -9 -11 -9 -31 0 -99 -67
-145 -142 -27 -45 -49 -84 -49 -87 -1 -3 -6 -16 -13 -28 -7 -13 -10 -23 -7
-23 3 0 -1 -10 -9 -22 -30 -50 -43 -198 -21 -250 12 -29 49 -46 96 -44 48 2
103 26 188 80 l54 35 26 -27 c57 -59 185 -133 289 -167 28 -9 52 -18 52 -21 0
-2 -19 -24 -42 -48 -255 -262 -284 -294 -309 -350 -29 -67 -5 -107 54 -91 89
25 134 61 337 266 154 157 212 209 235 213 117 21 185 56 212 111 12 24 8 62
-11 90 -12 18 -4 29 108 143 211 216 198 204 220 197 46 -15 142 -12 195 7 75
25 156 72 208 121 l43 40 -51 36 c-29 20 -59 41 -68 46 -9 6 -18 12 -21 15
-18 18 -73 51 -80 48 -5 -2 -43 -34 -86 -73 -42 -38 -84 -74 -93 -79 -14 -9
-14 -7 0 15 27 41 65 159 72 223 2 22 2 22 -198 41 -16 2 -60 6 -97 10 -62 6
-67 5 -82 -17z"/>
</g>
</svg>
